<?xml version="1.0" encoding="UTF-8"?>
<svg data-bbox="237 157 2007 2074.129" viewBox="0 0 2480 2405" height="3206.667" width="3306.667" xmlns="http://www.w3.org/2000/svg" data-type="shape">
    <g>
        <path d="M533.7 157.7c-.4.3-.7 24.2-.7 53 0 48.9.1 52.4 1.8 53.1 2.4 1 101.9.9 102.9-.1.9-1 1-102.5 0-105-.6-1.6-4.6-1.7-52-1.7-28.3 0-51.7.3-52 .7z"/>
        <path d="M725.3 158.7c-.4 1-.7 24.6-.8 52.5 0 40.3.3 51 1.3 52 1.9 1.9 101.5 1.9 103.4 0 1-1 1.3-11.7 1.2-52.1 0-27.9-.3-51.5-.7-52.4-.6-1.6-4.8-1.7-52.2-1.7-48.2 0-51.6.1-52.2 1.7z"/>
        <path d="M917.3 158.7c-1 2.5-.9 104 0 105 1 1 100.5 1.1 103 .1 1.6-.7 1.7-4 1.5-53.5l-.3-52.8-51.8-.3c-48.1-.2-51.8-.1-52.4 1.5z"/>
        <path d="M1109.2 158.2c-1.5 1.5-1.7 102.4-.2 104.8.8 1.3 7.6 1.5 51.2 1.5 27.7 0 51.1-.3 52.1-.7 1.6-.7 1.7-4 1.5-53.5l-.3-52.8-51.5-.3c-39.3-.2-51.9.1-52.8 1z"/>
        <path d="M1301.2 158.2c-.9.9-1.2 13.8-1.2 53 0 48.5.1 51.9 1.8 52.6 2.2.9 100.2.9 102.5 0 1.6-.7 1.7-4 1.5-53.5l-.3-52.8-51.5-.3c-39.3-.2-51.9.1-52.8 1z"/>
        <path d="M1493.2 158.2c-.9.9-1.2 14.1-1.2 53 0 48.5.1 51.9 1.8 52.6 2.2.9 100.2.9 102.5 0 1.6-.7 1.7-4.2 1.7-53.2 0-46.8-.2-52.5-1.6-53-.9-.3-24.2-.6-51.8-.6-37.7 0-50.5.3-51.4 1.2z"/>
        <path d="M1684.7 157.7c-.4.3-.7 24.2-.7 53 0 48.9.1 52.4 1.8 53.1 2.2.9 100.2.9 102.5 0 1.6-.7 1.7-4.1 1.7-52.6 0-38.9-.3-52.1-1.2-53-.9-.9-13.9-1.2-52.3-1.2-28.2 0-51.5.3-51.8.7z"/>
        <path d="M1876.7 157.7c-.4.3-.7 24.2-.7 53 0 48.9.1 52.4 1.8 53.1.9.4 24.3.7 52 .7 43.6 0 50.4-.2 51.2-1.5 1.5-2.4 1.3-103.3-.2-104.8-.9-.9-13.9-1.2-52.3-1.2-28.2 0-51.5.3-51.8.7z"/>
        <path d="M480.4 341.5c-9.5 2.1-17.1 6.3-24.4 13.5-7.3 7.2-11.2 13.8-13.5 22.5-1.3 5.3-1.5 90-1.5 802.5 0 524 .4 798 1 800.8 3.9 16.5 17.5 31.2 33.8 36.2 6.4 2 11.1 2 775.1 2 514.6 0 770-.4 773-1.1 8.4-1.9 15.4-6 22.7-13.3 7.6-7.6 11.3-14.1 13.9-24.1 1.3-5.3 1.5-90.4 1.5-800 0-685.8-.2-794.9-1.5-800.8-4-18.8-19.4-34.2-38.2-38.2-9.8-2.1-1532.4-2.1-1541.9 0zm1470.6 101c0 1.1 1.2 1.5 5 1.5h5v1475H541v-734.4c0-403.9.3-735.8.6-737.5.6-2.9.9-3.1 5-3.1 3.2 0 4.4-.4 4.4-1.5 0-1.3 78.4-1.5 700-1.5s700 .2 700 1.5z"/>
        <path d="M1117 530.1c-2.5.5-7.9 1.3-12.1 1.9-4.2.5-9.4 1.6-11.7 2.4-2.2.8-6.2 1.8-8.9 2.1-2.6.4-7 1.4-9.8 2.2-2.7.8-8.1 2.3-12 3.3-9 2.4-23 6.5-27.5 8-20.4 7.1-32 12-47.3 19.8-30.2 15.5-51.3 31.5-68.9 52.2-4.7 5.6-11.8 15.7-11.8 16.9 0 .3-1.4 2.4-3 4.5-1.7 2.2-3 4.6-3 5.4 0 .9-1.2 3.5-2.6 5.9-1.4 2.4-3.1 6.5-3.9 9.1-.7 2.6-2.3 7.2-3.4 10.2-1.1 3-2 6.9-2.1 8.6 0 2.3-1.2 4.2-4.7 7.7-2.6 2.6-5.1 4.7-5.6 4.7-1.3 0-8.7 5.4-14.6 10.6-2.5 2.2-6.6 5.4-9.1 7.1-7.1 4.8-37.6 35.5-48.6 48.9-9.6 11.7-22.4 28.7-22.4 29.8 0 .3-1.4 2.5-3 5-4.5 6.6-11 19-21.6 41.1-1.3 2.8-2.4 5.6-2.4 6.2 0 .7-1.1 3.7-2.5 6.6-1.3 3-2.7 7.4-3.1 9.8-.4 2.4-1.5 5.7-2.5 7.4-1 1.6-2.3 6.1-2.9 10-.7 3.8-2.1 9.7-3.1 13-4.2 13.8-7.5 66.7-4.9 78.9.6 2.8 1.4 10.1 1.7 16.1.5 10.4.4 11.3-1.9 16-1.4 2.8-3.3 7.4-4.2 10.2-1 2.9-2.1 5.5-2.6 5.8-.4.3-1.1 2.1-1.5 4.1-.3 2-1.7 5.9-2.9 8.8-4.6 10.2-9.9 28.7-14.8 51.1-5.1 23.8-5.2 24.9-5.2 68.5 0 40.4.2 44 3.4 58 .6 2.5 1.7 8 2.5 12.2.8 4.2 2.3 10.5 3.4 14s2.2 8.1 2.6 10.3c.4 2.2 1.2 4.9 1.9 6 .6 1.1 1.8 4.3 2.4 7.1.7 2.8 2.4 7.2 3.7 9.9 1.4 2.7 2.5 5.5 2.5 6.3 0 .9 1.4 4.5 3.1 8.1 1.7 3.6 4.4 9.5 6.1 13.1 1.7 3.6 3.5 7.4 4.1 8.5 1.7 3.1 6.7 12.6 8.5 16 .8 1.6 2.6 4.4 3.9 6.1 1.3 1.7 2.3 3.5 2.3 3.9 0 1.4 19.9 30.1 25.1 36.2 2.2 2.5 2.9 4.6 3.4 10 .3 3.7 1.5 12.2 2.6 18.8 1 6.6 1.9 13.1 1.9 14.5 0 2.4 4.4 18.6 7.7 28 .9 2.5 2.2 6.7 2.9 9.3 1.2 4.6 2.3 7 9.5 22.3 1.6 3.4 2.9 6.4 2.9 6.7 0 1 9.1 16 16 26.2 10 15 31.7 38.4 48.5 52.4 25 21 68.8 45 95.6 52.6 2.6.7 6 2 7.5 2.8 1.6.8 5.4 2 8.4 2.7 3 .6 7.9 2 10.8 3.1 2.9 1 6.5 1.9 8 1.9 1.6 0 5.5.8 8.8 1.9 3.2 1 10.2 2.4 15.4 3.1 5.2.6 12.3 1.8 15.6 2.5 7.2 1.6 37.4 3.5 55.4 3.5 43-.2 66.1-4.3 85.8-15.4 7.8-4.4 17.6-12.3 22.7-18.2 11.9-13.9 14.8-20.5 17.5-39.4 2-14.5 2-16 1.8-482-.2-369-.6-468.7-1.6-473.3-.6-3.1-1.6-8.2-2.2-11.2-.5-3.1-1.8-6.7-3-8.2-1.1-1.4-2-3.3-2-4.3 0-3.3-12.9-19-20-24.4-7.7-5.7-8.2-6-19.5-11.6-11.1-5.4-16-7-28.5-9.4-9.1-1.7-29.2-2-37-.5zm42 39.4c7.6 3.2 10.8 5.2 16.2 10.3 3.7 3.5 8.2 8.9 10 12l3.3 5.7.3 33.5.3 33.5-3.4 5.2c-5.7 8.8-14.9 17.8-23.1 22.5-11.8 6.8-17 8.9-38.4 15.5-10.6 3.3-15 10.2-13.2 20.5 1 5.3 6.6 10.7 13.2 12.6 3.8 1.1 5.9 1.1 13.8-.3 5.1-.9 11.1-2.3 13.4-3.2 2.3-.8 6.1-2.1 8.6-2.8 5.5-1.6 13.8-5.7 20.8-10.3 4.3-2.8 5.5-3.2 6.7-2.2 1.3 1.1 1.5 16.6 1.3 128.4l-.3 127.1-3.5 4.4c-7 8.7-14.6 16.4-20.4 20.5-9.8 6.9-11 7.6-13.5 7.6-2.6 0-9.2-6.3-15.1-14.3-1.9-2.6-4.7-6.4-6.2-8.4-1.6-2-2.8-4-2.8-4.5s-.8-2-1.7-3.4c-4.6-7.2-8.5-18.1-9.2-26.4-1.2-13.7.5-30.7 4-39.8 1.6-4.2 3.4-8.4 3.9-9.2.5-.8 1.9-3.3 3.1-5.5 3.4-6.3 14.7-19.3 20.6-23.6 7.3-5.5 8.8-8 8.6-15.1-.2-8.4-3-12.3-11.8-16-12.7-5.3-27.6 3-45.1 25.3-5.1 6.4-9.6 11.2-10.9 11.5-1.4.3-3.8-.3-6.1-1.6-2.2-1.1-5-2.7-6.4-3.5-4.9-2.7-10.5-5.2-13.5-5.9-1.6-.4-4.3-1.4-6-2.1-1.6-.8-5.9-2.1-9.5-3-3.6-.9-8.5-2.1-11-2.8-5.8-1.5-48.4-1.5-56 0-12.4 2.5-18.7 4.2-23.3 6.2-2.7 1.2-5.4 2.1-6.2 2.1-1.3 0-7.8 2.8-19 8.1-13.8 6.6-29.9 18.4-41.3 30.3-12.8 13.4-14.7 19.9-8 28.1 5.8 6.9 17.6 9.7 25.9 6.1 2-.8 6.9-4.9 11-8.9 7.2-7.2 18.2-16.7 19.5-16.7.3 0 1.8-.8 3.2-1.9 11.3-7.9 30.7-15.2 50.7-19 13.5-2.6 21.1-2.3 40.5 1.8 13.4 2.8 35.7 14.8 40.1 21.6.9 1.5 1.2 6.5 1 19-.2 13.3.1 17.9 1.3 21.4.9 2.4 2.1 7.3 2.6 10.8.6 3.6 1.9 8.2 3 10.2 1 2 3.3 6.7 5.1 10.6 1.8 3.8 5.4 9.9 7.9 13.5 2.6 3.6 5.3 7.6 6 8.9.7 1.4 2.1 3.4 3.1 4.5 2.4 2.5 2.4 6.2.2 7.5-1 .5-10.8 1.2-21.8 1.5-24.8.8-27.6 1.3-32.5 6.1-7 6.8-7.2 16.2-.6 23.3 6 6.5 6.4 6.6 33.1 5.8 13.2-.3 26-1 28.5-1.5 17.4-3.3 23.7-4.7 32.5-7.4 5.5-1.6 10.5-3.3 11-3.7.6-.3 4.2-1.9 8-3.5 6.4-2.6 18.5-8.9 22.7-11.7 1.2-.9 2-.9 3.2.1 1.4 1.2 1.6 15.5 1.6 148.7v147.3l-2.1 1.1c-1.6.9-2.9.7-6.2-1-8.5-4.5-19.7-6.3-41.1-6.7-23.7-.5-28.5.5-35.3 7.2-4 3.9-4.3 4.6-4.3 9.6 0 7.2 2.4 11.7 8.4 15.7l4.9 3.2 18.1-.2c20-.3 25.3.5 34.9 5.3 8.3 4.1 14.6 10.5 19 19.3l3.7 7.5-.2 83.3-.3 83.3-3 5c-7.6 12.5-23.2 23.6-36 25.5-3.3.4-6.7 1.1-7.5 1.4-5.8 2-48.4 2.5-67.5.8-6.6-.6-16.1-1.5-21.2-2-9-.8-12.3-2.1-12.3-4.8 0-3.6 8.2-16 14.5-22.1 3.9-3.6 23.9-17.3 25.5-17.3.5 0 4.7-2.5 9.3-5.5 7.7-5 18.6-15.4 23.2-22.1 7.1-10.3 11.5-23.5 12-36.5.3-7.3 0-9.9-2.4-17-1.5-4.6-3.9-10.7-5.3-13.4-3.5-6.5-12.5-16.7-20.5-23.1-5.8-4.6-21.4-13.4-23.9-13.4-.5 0-2.7-.9-4.9-2s-5-2-6.2-2c-1.3 0-5.8-1-10.1-2.1-6-1.7-10.9-2.2-22.2-2.3-14.4-.1-14.5-.1-18.7 2.7-11.1 7.6-12.1 18.1-2.8 27.8 2.9 3 12.5 5.3 22 5.5 11.9.1 18.7 1.7 28.7 6.6 9 4.3 15.1 9.4 21.1 17.1 3.7 4.9 3.7 4.9 3.7 14.7v9.7l-4.9 7.4c-2.7 4.1-6.4 8.5-8.2 9.9-5.8 4.3-21.4 14-22.6 14-2.7 0-25.7 18.7-31.9 25.9-5.1 5.9-14.4 21.8-14.4 24.5 0 .7-.9 2.1-2 3.1-1.9 1.7-2.5 1.7-7.3.6-8.2-2.1-18.5-6.5-40-17.2-14.8-7.4-14.2-7-23.3-12.9-28.5-18.4-51.5-40.8-67.6-65.9-3.5-5.3-6.9-10.6-7.6-11.6-.7-1.1-2.1-3.8-3.1-6s-3.7-7.8-5.9-12.5-5-11.7-6.1-15.7c-1.2-4-2.6-7.5-3.1-7.8-.5-.3-1.2-2.7-1.5-5.3-.3-2.6-1.5-7.2-2.5-10.2-2.8-8.4-4-18.6-4.1-35.3-.1-15.5.8-20.6 4.6-26 .8-1.2 1.5-3.1 1.5-4.3 0-3.4 12.3-26.5 18.1-34 7.6-10 18.9-23.2 19.9-23.6.5-.2 4.4-3.5 8.6-7.3 10-9.1 26.3-20.3 38.7-26.6 5.5-2.7 10.6-5.4 11.5-5.9 2.8-1.5 13.5-5.8 16.2-6.5 1.4-.4 4.3-1.5 6.5-2.5s6-2.3 8.5-3c9.6-2.5 19.7-5.2 24.4-6.6 2.7-.8 7.2-1.7 10.1-2 3.6-.5 6.5-1.6 9.7-4 5.7-4.1 7.3-8.2 6.3-16.2-.6-4.9-1.3-6.2-4.6-9.4-2.8-2.7-5.1-3.9-8.5-4.4-7.6-1.1-21.2.3-28.9 3.1-3.8 1.3-8.3 2.5-9.8 2.5s-4.2.8-6 1.7c-1.8.9-5 2-7.2 2.4-5.3.9-18.1 5.4-22.6 7.9-2 1.1-4.2 2-4.9 2-1.4 0-22.8 10.6-30.5 15.1-2.7 1.6-5.7 3.2-6.5 3.6-.8.3-3.1 1.9-5.1 3.5-2 1.5-4 2.8-4.5 2.8-1.2 0-11.6 8.3-23.7 18.9-19.4 17-33.5 34.5-45.3 56.1-4.6 8.4-7.6 7.7-13.2-3-1.5-3-3.9-7.3-5.3-9.5s-3-4.9-3.7-6c-.7-1.1-1.7-3.1-2.3-4.5-.6-1.4-2.3-5.2-3.9-8.5-5.3-11.3-6.9-15-9.1-21-5.7-16.3-6.8-19.3-8.2-22.5-.8-1.9-1.8-5.8-2.1-8.5-.4-2.8-1.6-7.5-2.6-10.5s-2.4-9.6-3-14.5c-.7-5-1.9-12.4-2.8-16.5-1-5.1-1.7-15-2-31.1-.4-22.2 0-29 2.8-46.9.5-3.6 1.5-10.6 2.1-15.5.7-5 2-10.7 3.1-12.7 1-2.1 1.8-5.1 1.8-6.8 0-4.6 3-15.8 4.6-17.1 1.9-1.6 6.1-.3 7.5 2.4 3 5.5 15.6 21.3 24.3 30.5 13.5 14 18.4 16.1 30.3 12.6 8.1-2.4 11.1-5.5 12.5-13.3 1.4-8.3.6-9.8-11.4-22.6-5.1-5.5-10.7-11.8-12.3-13.9-3.8-5-14.2-21.3-15.6-24.6-.6-1.4-2.4-5-4-8.1-1.6-3.1-2.9-6.4-2.9-7.2 0-.9-.8-3.1-1.9-4.9-1-1.8-2.4-6.2-3.1-9.8-.7-3.6-1.9-8.8-2.7-11.5-2.3-8.1-3.6-37.7-2.4-56.5 1-16.1 4.7-38.2 8.4-49 .8-2.5 1.7-5.7 2.1-7.1.3-1.5 1.4-3.7 2.4-4.9 1.6-2 2.2-2.2 5.3-1.2 6.8 2.2 29.2 4.4 38.9 3.9 15-.9 26-2.5 32.4-4.7 3.3-1.1 6.6-2 7.5-2 1.3 0 8.1-3 16.5-7.2 13.3-6.8 29.3-20.6 36.3-31.4 4.5-7.1 11.2-20.3 11.3-22.4 0-.8.9-4 2-7 2.9-8.4 2.6-11.8-1.7-17.8-2.7-3.6-5.2-5.7-8.6-7.2-6.1-2.7-8.9-2.8-16.1-.5-8.4 2.6-14.6 10.9-14.6 19.3 0 2.3-.8 4.9-1.8 6.3-1 1.3-2.4 4-3.2 5.9-3.2 8.1-16.3 20.2-28 25.6-7.1 3.4-17.9 6.4-25 7-3.6.3-7.3.8-8.3 1.1-2.5.7-22.9-1.8-24.4-3-.7-.5-1.3-2-1.3-3.3 0-2.6 3.4-9.6 5.5-11.4.7-.6 1.9-2.5 2.6-4.3 2.6-6.3 17.7-27.1 27.7-38.2 22.3-24.5 46.7-46.3 64.1-57 .9-.6 3.2-2.2 5.1-3.7 3.2-2.3 7.4-5 18-11.1 5.1-3 27.1-14 31.1-15.6 1.9-.7 6.1-2.6 9.4-4.1 3.3-1.5 7.8-3.3 10-4 2.2-.6 5.9-2 8.2-3.1 2.4-1 4.8-1.9 5.5-1.9.6 0 2.6-.5 4.4-1.2 2.7-.9 3.7-.9 5.8.5 4.3 2.8 12.8 17.4 18.8 32.2l3.3 8V737c0 20.9-.1 21.7-2.6 27.5-1.5 3.3-2.9 7.1-3.2 8.5-.4 1.4-2.5 5.9-4.7 10-5.4 9.9-5.9 10.7-10.1 16.1-6.5 8-7.9 11-7.9 16.7 0 4.9.3 5.5 4.8 10.1 4.1 4.3 5.4 5 10 5.6 11.5 1.5 19.6-1.3 24.8-8.6 16.8-23.4 24-38.8 28.4-60.4.7-3.3 1.6-6.9 2.2-8 1.4-3.1.4-32-1.4-39.5-.9-3.6-2-8.8-2.6-11.5-1.4-7.5-9.6-26.3-15.4-35.3-1.3-2.2-1.7-3.7-1.1-4.3 1.8-1.8 28.1-6.9 35.9-6.9 6.6 0 12.7-3.2 16.8-8.9 2.6-3.6 3.1-5.1 2.9-9.3-.1-5.6-1.8-8.4-7.5-13.1-3.6-2.9-3.7-2.9-17-2.8-12.1 0-21.3 1.1-36.8 4.1-3 .6-8.2 1.5-11.5 2-3.3.4-7.3 1.3-9 2-1.6.6-5.2 1.6-8 2.1-2.7.5-8.1 1.8-12 3-3.8 1.1-10.8 3.2-15.5 4.5-4.7 1.4-10.3 3.2-12.5 4.1-2.2.8-5.8 2.2-8 3-2.2.8-5.3 2.1-7 2.8-3.7 1.7-12.2 4.5-13.5 4.5-1.9 0-1-3.2 2.2-7.8 8.2-11.9 29.1-29.9 45.9-39.6 17.5-10.1 45.9-22.2 64.4-27.5 3.3-1 7.2-2.3 8.7-2.9 1.5-.6 5.1-1.4 8-1.8 2.9-.4 7.2-1.5 9.6-2.6 2.4-1 5.5-1.8 7-1.8 2.6 0 18.4-3.5 23.2-5.1 1.4-.4 9.5-.7 18-.6l15.5.2 9.5 4z"/>
        <path d="M959.2 980.1c-6 .6-13.5 2-17.7 3.4-4 1.4-7.9 2.5-8.5 2.5-2.1 0-19.7 8.7-24.2 12-11.6 8.4-21.7 20.4-26.6 31.5-4.1 9.5-5 15.6-4.6 31.3.4 13.5.5 13.7 6.1 28.7 2.5 6.6 6.9 13.3 14.2 21.7 3.5 4 4.3 7.7 2.1 10.2-1 1.3-10.8 7.4-13.5 8.5-.5.2-2.2 1.2-3.6 2.2-1.5 1-5.1 2.5-8 3.3-3 .8-7.4 2.1-9.8 3-3.1 1.2-8 1.6-17.2 1.6-15 0-19.8 1.5-26.1 8.3-3.5 3.8-3.8 4.5-3.8 10.1s.3 6.4 3.9 10.7c3.2 3.7 4.9 4.8 9.3 5.8 6 1.5 28.5 1 38.3-.8 6.8-1.2 23-5.8 26-7.4 1.1-.5 2.7-1.4 3.5-1.8l7.8-3.9c7.6-3.6 19.1-11.3 25.6-17 5.3-4.5 5.6-4.6 9.6-2.5 1.7.9 6.5 2.3 10.7 3.1 4.3.9 8.6 2.1 9.6 2.6 2.2 1.1 28.5 3.7 44.2 4.4 6.1.2 20 1.1 31 1.8 23.1 1.6 25.6 2.2 41.5 10.7 5.9 3.2 18.2 15.5 21 21 1.2 2.4 2.8 5.1 3.6 5.9.7.9 2 4 2.8 7 .8 3 2 7.3 2.7 9.5 1.5 5.3.7 15.5-1.9 23.1-6.7 19.4-30.4 38.8-54.2 44.4-3 .7-6.6 1.6-8 2.1-3.9 1.3-14 2.9-18.2 2.9-3.8 0-9.9 3.1-12.6 6.2-2.6 3.1-4.3 10-3.2 13.2.5 1.7 1.2 4.2 1.5 5.6.3 1.4 2.3 3.8 4.8 5.5 3.5 2.4 5.4 3 11.2 3.3 32.5 1.8 71-13.5 96.3-38.2 5.9-5.7 14.2-16.5 14.2-18.5 0-.4.8-1.9 1.9-3.2 3.8-4.9 8.2-18.1 9.2-27.4 1.3-13.4.1-27.8-2.7-34.4-1.3-2.9-2.4-6.2-2.4-7.1 0-2.1-6.1-14-9.4-18.3-14.3-18.9-24.9-28.3-41.1-36.5-16.9-8.5-32.3-11.4-70-13.2-26.7-1.3-43.3-2.7-48-4.1-2.2-.6-6.7-1.5-10-1.9-6.7-.9-16.4-5.6-26-12.5-9.2-6.6-14.6-13.5-20.1-25.5-2.5-5.7-2.9-7.6-2.9-15.5.1-7.8.5-9.7 2.8-14.1 1.5-2.9 2.7-5.6 2.7-6.2 0-.6 2.7-3.4 5.9-6.4 6.6-5.9 17.1-11.7 23.4-12.9 2.3-.4 6.2-1.3 8.7-1.9 2.5-.7 9.2-1.5 15-1.9 12.1-.8 16.5-2.8 20.6-9.2 3.6-5.7 3.2-11.2-1.1-17.1-1.9-2.6-4.7-5.4-6.2-6.1-3.8-2-17.7-2.7-30.1-1.6z"/>
        <path d="M952.1 1336.4c-3 1.3-8.3 4.4-11.7 7-3.4 2.5-6.7 4.6-7.2 4.6-.8 0-4.2 3.4-14.7 15-7 7.7-15.2 21.4-18.5 31-.7 1.9-1.9 5.3-2.8 7.5-2.1 5.5-2.8 25.9-1.2 34.8 3.3 18.7 16.1 38.6 32.5 50.6 4.9 3.6 20.3 13.1 21.2 13.1.3 0 2.8 1.2 5.6 2.6 9.5 4.7 25.4 9.6 35.7 11 4.2.5 5.8.2 11.5-2.4 5.6-2.7 6.8-3.7 8.5-7.4 2.3-5 2.4-6 .9-12.8-1-4.6-1.6-5.5-6.2-8.5-2.9-1.9-6.8-3.7-8.7-4.1-6-1-22.4-6.6-25.2-8.5-1.4-1.1-3.1-1.9-3.6-1.9-1.6 0-11.3-6.9-16.7-11.9-6.3-5.8-11-13-13-20.1-.9-3-2.1-6.3-2.6-7.2-1.6-3.1-1-10.5 1.6-19.5 4.4-15.1 14.8-28.5 30.5-39.3 9.3-6.3 15-13.2 15-17.9 0-1.4-1.4-5-3.1-7.9-5.4-9.5-16.6-12.6-27.8-7.8z"/>
        <path d="M1353.5 538c-3.3 1.4-86.3 85.3-87.5 88.3-.7 1.9-1 45.8-1 136.2 0 130.9 0 133.4 1.9 134.5 1.3.6 24.4 1 67.9 1 62 0 66 .1 67.5 1.8 1.4 1.5 1.6 4.9 1.7 23.4 0 11.9-.3 23-.6 24.6-.4 2.1-5.1 7.6-15.7 18.3-8.4 8.5-16.9 16.9-19 18.6l-3.9 3.3H1318c-32.6 0-47.7.3-49.4 1.1-1.3.6-2.7 2.2-3 3.5-.8 2.9-.7 137 0 140 .3 1.2 1.7 2.7 3 3.3 1.8.8 29.5 1.1 98.4 1.1 93.8 0 96 0 97 1.9 1.6 3 1.3 43.3-.3 45.5-1.2 1.6-4.7 1.7-50.2 1.8-40.3 0-49.4.3-51.2 1.4-2.3 1.4-2.3 1.6-2.3 27.2 0 29.4.2 28.8-8.3 32.7-2.9 1.3-6.2 3.2-7.3 4.2-1.2 1-4.9 3.8-8.1 6.3-10.6 7.9-19.3 22.7-21.9 37-2.5 13.6-1.4 28.5 2.7 37.8 1 2.3 1.9 5.3 1.9 6.5 0 1.6-7.7 9.9-26.6 28.7-14.6 14.6-27 27.5-27.5 28.8-1 2.6-1.1 82.5-.1 85.9.4 1.3 11.9 13.5 25.6 27.2l24.8 25-.6 6.8c-.3 3.7-.9 10.4-1.2 14.7-2.4 29.6 13.1 54.3 42.6 67.6 7.2 3.3 8 3.4 22 3.8 15.5.4 18.8-.1 29-4.4 15.4-6.4 28-18.5 36.6-35.2 1.9-3.8 3.6-5.7 6-6.7 2.7-1.1 17.1-1.4 78.5-1.5 41.3 0 75.9-.5 76.8-.9.9-.5 18.5-17.7 39.1-38.2l37.5-37.4.3-26.8.3-26.8 3.2-1.9c1.8-1.1 4.5-2 6.1-2 2.6 0 8.2-5.2 40.4-37.3 20.5-20.4 38.7-38.9 40.4-41.1l3.2-3.8-.1-71c0-65-.2-71.1-1.7-72.6-1.5-1.6-6.9-1.7-61.7-1.7h-60.1l-1.9 2.5c-1.9 2.4-9.2 10.7-15.4 17.4-1.6 1.8-6.6 7.4-11 12.5-4.3 5.1-8.8 9.8-10 10.4-2.5 1.3-36.5 1.8-41.7.6-3-.8-9.2-6.5-33.8-31-17.3-17.4-30.8-31.7-31.8-33.8-1.6-3.3-1.7-9.5-1.2-80.8l.5-77.3 12.5-12.6c6.9-6.9 13.8-13.2 15.4-14.1 2.6-1.4 12.3-1.5 82.4-1.4 67.6.2 79.9.4 82.3 1.7 4.6 2.3 34.6 33 35.8 36.5.7 1.9 1.1 11.2 1.1 23v19.8l-2.6 2c-2.5 2-4 2.1-21 2.1-10 0-19.3-.4-20.6-.9-1.4-.5-3.5-3.3-5.2-6.8-4.6-9-9.9-16.3-16.3-22.4-6.1-5.9-14.7-11.9-17-11.9-.7 0-3.4-1.1-6-2.5-7.5-3.8-19.8-5.1-33-3.5-9.2 1.1-12.1 1.9-20 5.7-11.5 5.6-21.6 14.1-26.2 21.9-1.9 3.3-4.1 6.7-4.9 7.6-2 2.4-5.6 13.8-7.2 22.5-2.3 12.9 1.3 32.1 8.2 43.5 6.2 10.4 18.3 22 27.3 26.2 16.2 7.5 17.4 7.8 32 7.8 14.7-.1 24.8-3 38.1-11.1 7.2-4.4 18.3-17.1 22.8-26.1 4.9-9.8.7-9 45-9 43 0 46.6-.4 46.7-4.8v-51.9l.1-49.3-3-3.7c-1.7-2.1-14.9-15.6-29.4-30.1l-26.4-26.2h-199.9l-25.5 25.5-25.5 25.5-.5 35.6c-.5 33.9-.6 35.6-2.5 37-1.6 1.2-13 1.4-77.1 1.2-72.3-.3-75.3-.4-77.3-2.2-2-1.9-2.1-2.7-2.1-31.2v-29.3l2.6-2c2.6-2 3.8-2.1 36.5-2.1 18.6 0 34.8-.4 36.1-.9 3-1.2 60.8-58.9 61.9-61.9.5-1.3.9-16.7.9-34.2 0-30.7.1-32 2-33 1.2-.7 12.3-.9 31.7-.8l29.8.3 5 9.6c2.8 5.2 6.1 11.3 7.4 13.3 2.5 3.9 16.4 15.6 18.6 15.6.7 0 2.7 1 4.6 2.3 3.6 2.4 15.2 5.8 25.9 7.7 5.5 1 7.4.9 12.5-.5 3.3-.9 9.2-2.5 13.1-3.4 4-1 8.4-2.8 9.9-3.9 1.5-1.2 3.2-2.2 3.7-2.2 2.1 0 12.6-8.8 17.6-14.6 7.1-8.4 9.9-13.7 13.3-25.5 3.9-13.7 4-23.1.1-36-4.1-13.3-8-20.4-16.2-29.2-8.8-9.4-17.5-14.7-30.8-18.9-9.1-2.8-10.4-3-21.2-2.5-8.7.3-12.7 1-16.3 2.6-2.7 1.1-5.9 2.1-7.1 2.1-1.3 0-3.1.9-4 1.9-1 1.1-3.2 2.5-4.9 3.2-8.9 3.7-19.7 15.2-26.9 28.9l-4.5 8.5-99.1.3-99.1.2-1.6-2.9c-1.3-2.6-1.5-15.7-1.5-107.1 0-88.3.2-104.5 1.4-106.8 2.4-4.4 60.8-62 63.7-62.7 4.6-1.1 66.2-.1 68.3 1.1 1.1.7 28.7 27.9 61.3 60.5l59.3 59.3.2 12.1c.2 15 .2 17.5-.7 18.3-.4.4-9.7.9-20.8 1.2l-20.2.5-12.3 10.3c-6.7 5.7-13.7 10.9-15.5 11.7-2.5 1-9.4 1.4-28.6 1.4h-25.2l-2.5-2.4c-4.9-4.9-2.3-12 5.6-15.4 4.5-1.9 10.3-5.6 17.6-11.1 2.5-1.9 13.4-15.1 13.4-16.2 0-.5 1.1-2.6 2.5-4.7 4.7-7.1 7.5-18.8 7.5-31.7 0-17.1-5.5-31.2-17.7-45.2-9-10.3-22.8-18.3-33.8-19.7-3.3-.4-7.8-1.3-10-2.1-5.3-1.8-8.6-1.7-17.4.6-4.1 1.1-8.4 2-9.5 2-2.7 0-14 5.4-18 8.5-11.1 9-17.5 16.2-22.9 26.4-3 5.5-3.8 8.1-5.8 19.1-1.2 6.4-.7 21.3 1.1 28.5 4.6 19.1 19.6 36.6 39.2 45.6 6 2.8 6.2 3.8 6.4 29.9 0 12.9.4 24.5.8 25.6.4 1.2 1.4 2.3 2.4 2.5.9.2 26.5.2 56.8-.1l55.1-.5 6.8-6c3.7-3.3 9.7-8.4 13.3-11.3 3.5-2.8 6.5-5.3 6.6-5.4 0-.1 14.7-.4 32.6-.7l32.5-.6 1.2-3.5c1.3-3.8 1.9-74.9.6-81.1-.5-2.8-12.5-15.3-69.7-72.7-38-38.1-71.1-70.9-73.5-72.8l-4.4-3.4-49.1.1c-27 0-50 .4-51.1.9zm71.6 111.8c6.5 4.2 9.8 8 13 14.8 3.6 7.5 3.7 12.2.3 19.4-4.6 9.9-13.3 16.5-23.4 17.7-9.4 1.1-20.8-5.4-26.6-15.3-2.3-4-2.6-5.2-2.3-12.8.4-7.6.7-8.8 3.9-13.5 1.9-2.8 4.9-6 6.5-7.1 1.7-1.1 4.4-2.9 6-4 2.3-1.5 4.7-2 10.6-2 6.6 0 8.1.4 12 2.8zM1579.5 852c1.1.5 3.4 1.1 5 1.5 1.8.4 5.3 3 8.6 6.4 5.3 5.4 5.7 6.3 6.6 12.2.9 7 0 14.6-2.4 19.2-.8 1.6-3.4 4.8-5.7 7.1-3.3 3.4-5.7 4.7-10.9 6.1-6.3 1.7-7.1 1.7-13.2.2-10.4-2.6-17.5-9.5-20.1-19.7-2.6-10.2-.4-17.8 7.4-25.8 7.1-7.3 17.4-10.3 24.7-7.2zm56.5 239.4c8.1 5.1 12.3 11.4 13.3 20.1 1.5 12.9-3.4 22.1-14.7 27.9-9.1 4.7-14.3 4.8-23 .7-7.3-3.5-10.7-6.9-13.7-13.6-2.8-6.2-3-16.1-.4-22 1.7-4.1 9.1-12.5 11-12.5.5 0 2.1-.9 3.5-2 2-1.6 4.1-2 10.5-2 7.5 0 8.5.3 13.5 3.4zm-153.7 141.4c3.4 3.2 20.4 20 37.7 37.3 17.3 17.4 32.5 32.1 33.7 32.7 3.1 1.7 73.7 1.6 77.5-.1 2.6-1.1 18.2-17.9 31.1-33.5 3.4-4.1 7.3-8 8.8-8.8 2.2-1.1 8.6-1.4 31.5-1.4 25.3 0 29 .2 30.6 1.7 1.7 1.5 1.8 4.2 1.8 42.3 0 35-.2 41.3-1.6 44.6-1.7 4.2-50.6 54.3-55.6 57-2.2 1.1-9.7 1.4-42.9 1.4h-40.2l-3.2-3.4c-1.8-1.9-3.6-4.7-4-6.3-1.1-4.4-6.8-12.3-13.7-18.8-7.2-6.9-10.8-9.5-15.8-11.5-1.9-.7-4.7-2.2-6.3-3.3-5.4-3.7-32.9-4.7-45.5-1.5-2.6.6-6.3 2.2-8.2 3.5-1.9 1.2-3.9 2.3-4.4 2.3-2 0-11.7 7.3-16.1 12.2-6.1 6.7-10.5 13.6-14.6 22.9-3.2 7.1-3.4 7.9-3.7 22.4-.4 15.9-.5 15.1 5.1 30.1 2.3 6.1 8.8 15.3 14.8 21 5.8 5.4 17.4 13.4 19.6 13.4.8 0 3.6 1.1 6.3 2.5 4.7 2.4 5.8 2.5 21.4 2.5h16.5l8.2-3.6c10.4-4.6 17.1-8.9 23.4-15.1 7.1-7 11.4-12.7 13-17.4 2.1-6 5-9.4 8.7-10.5 1.9-.5 11.6-.7 23.1-.4 18.2.5 20 .7 21.3 2.4 2 2.8 2 31.6 0 35.4-.8 1.5-13.2 14.4-27.5 28.7l-26.1 26h-69.4c-66.9 0-69.5-.1-71.5-1.9-1.2-1.1-2.6-3.7-3.2-6-.6-2.2-2.2-5.3-3.5-6.9-1.3-1.6-2.4-3.2-2.4-3.5 0-2.1-19.3-20.2-21.4-20.2-.3 0-4.1-1.7-8.4-3.8l-7.7-3.7H1381c-16.9 0-18.9.2-23 2.2-16.8 8.1-15.7 8.5-34.4-10.5-8.6-8.7-16.5-17.2-17.6-18.9-1.7-2.9-1.9-5.3-1.9-26.7V1416l3.5-4.2c2-2.4 11.6-12.3 21.5-22.1 17.9-17.7 18-17.7 22.5-17.7 2.7 0 6.2.9 8.7 2.2 3.6 1.9 6.3 2.2 19.3 2.6 14.5.4 15.2.3 20.7-2.2 3.2-1.4 6.3-2.6 7-2.6.7 0 3.3-1.2 5.8-2.8 2.4-1.5 5.7-3.4 7.2-4.1 3.9-2 11.5-9.5 16.4-16.1 4.5-6.2 10.2-18.5 10.9-23.3 1.1-9.2 1.6-13.5 1.7-16.2.2-6.4-2.4-20-4.8-25.3-1.4-3-2.5-6-2.5-6.6 0-1.5-6.1-9.7-11.5-15.5-4.4-4.7-13.4-11.2-20.6-14.8-7.7-3.9-8.9-5.5-8.9-12.3 0-4.6.4-6.1 1.8-6.9 1-.7 15-1.1 37.5-1.1h35.8l6.2 5.8zm-91.2 50.5c10.8 5 17.4 15.2 17.4 26.7 0 5.7-.4 7.2-3.2 11.5-4.7 7.4-8 10-16.3 13.3-9 3.6-11.2 3.4-20.5-1.7-6-3.2-7.4-4.6-11.2-10.6-3.2-5.2-4.3-7.9-4.3-11 .1-10.5 5.3-19.7 14.4-25.7 5.6-3.6 6.4-3.8 13.5-3.8 4.2.1 8.8.6 10.2 1.3zm144.6 116.8c3.4 1.2 11.4 8.8 15.4 14.6 2.6 3.7 2.9 5 2.9 11.5 0 6.2-.4 8-2.9 12.3-9.7 16.7-28.9 20.4-42.5 8.1-6.3-5.8-10-14.1-9.3-21.1 1-9.4 7.5-18.9 16.7-24.4 3.9-2.4 14.7-2.9 19.7-1zm-142.9 136c7.6 4.1 8.2 4.8 12.5 12.8 5 9.3 4.9 13.3-.1 23.2-3.4 6.6-4.6 7.8-10.3 11.4-6 3.7-6.9 4-13.9 3.9-6.1 0-8.3-.4-11.5-2.4-5.6-3.3-9.1-6.7-12.8-12.5-2.9-4.5-3.2-5.7-3.2-12.6 0-6 .4-8.1 1.8-9.7 1-1.1 2.7-3.5 3.6-5.4 1-1.8 4.5-5.2 8-7.6 5.9-3.9 6.7-4.2 13.3-4.2 5.9 0 7.8.5 12.6 3.1z"/>
        <path d="M1516 1721v14h34v-28h-34v14z"/>
        <path d="M1199.5 1718.1c-12.4 1.8-22.5 9.1-27.6 19.8-4.5 9.7-5.1 17.7-4.7 68.5.4 40.7.7 47.9 2.2 53 3.9 13.7 9 20.7 18.4 25.3 5 2.5 6.8 2.8 15.3 2.8 8.6 0 10.1-.3 15.4-3 3.6-1.8 7.2-4.6 9.1-7.2l3.1-4.1 2.5 6.1 2.6 6.2 7.1.3 7.1.3V1789h-41v29h9.2l-.4 15.7c-.5 18.1-1.6 21.6-6.9 22.8-3.7.8-8-1.8-9-5.6-1.2-4.3-1-93.3.2-96.8 1.3-3.6 3.5-5.1 7.6-5.1 5.9 0 7.3 3.4 7.3 17.1v9.9h33v-7.9c0-10.2-2.5-24.3-5.4-30.7-5.2-11.3-14.3-17.6-27.6-19.4-8.6-1.1-9.3-1.1-17.5.1z"/>
        <path d="M1591.4 1718c-7.2 1-15.3 5-19.9 9.6-8.4 8.6-13 26-10.6 40.6 2.1 13.4 5.3 18.2 24.7 37.6 20.2 20.1 22.5 23.5 23.2 35.4.2 4.2.2 8.8-.2 10.2-.9 3.7-4.8 5.9-8.7 5.1-4.7-1.1-5.9-5-5.9-20V1824h-34v9.8c0 34.8 9.1 49.7 32.5 53.4 8.5 1.3 21.4.5 27.6-1.7 13.1-4.6 21.1-19.4 22.6-41.7.8-12.7-.9-22.6-5.4-31.8-3.2-6.6-6-9.9-22.4-26.5-11.6-11.7-19.4-20.5-20.4-22.8-3.3-7.9-1-13.7 5.4-13.7 5.7 0 7.1 2.2 7.1 10.8v7.2h35.2l-.7-6.8c-2.6-27.7-11.9-39.4-33.7-42.2-8.2-1.1-9.2-1.1-16.4 0z"/>
        <path d="M671 1802.5v83.5h32v-167h-32v83.5z"/>
        <path d="M716 1802.5v83.5h33l.1-39.3c0-21.5.4-38.3.8-37.2.4 1.1 4.1 18.8 8.2 39.2l7.4 37.3H799v-167h-33l-.1 37.7-.1 37.8-6.9-35.5c-3.8-19.5-7.1-36.5-7.4-37.8-.5-2.2-.7-2.2-18-2.2H716v83.5z"/>
        <path d="M808 1735.5v16.5h19v134h34v-134h20v-33h-73v16.5z"/>
        <path d="M890 1802.5v83.5h69v-33h-35v-37h32v-31.9l-15.7-.3-15.8-.3-.3-15.8-.3-15.7H957v-33h-67v83.5z"/>
        <path d="M970 1802.5v83.5h68v-28h-34v-139h-34v83.5z"/>
        <path d="M1047 1802.5v83.5h68v-28h-34v-139h-34v83.5z"/>
        <path d="M1123 1802.5v83.5h33v-167h-33v83.5z"/>
        <path d="M1263 1802.5v83.5h69v-33h-35v-37h32v-31.9l-15.7-.3-15.8-.3-.3-15.8-.3-15.7h33.1v-33h-67v83.5z"/>
        <path d="M1343 1802.5v83.5h33l.1-38.8.1-38.7 6.7 33c3.8 18.1 7.4 35.6 8 38.7l1.2 5.8h32.9v-167h-32l-.2 38.2-.3 38.3-4.2-21.5c-2.3-11.8-5.6-29-7.4-38.3l-3.2-16.7H1343v83.5z"/>
        <path d="M1434 1735.5v16.5h20v134h34v-133.9l9.8-.3 9.7-.3.3-16.3.2-16.2h-74v16.5z"/>
        <path d="M1648 1735.5v16.5h20v134h34v-133.9l9.8-.3 9.7-.3.3-16.3.2-16.2h-74v16.5z"/>
        <path d="M1756.7 1743.5c-13 3.3-22.5 10.4-26.7 19.9-2.7 5.9-3.5 15.9-2 24.5 1.8 10.6 6.6 17.2 20.4 28 25.3 19.7 27.6 22.6 27.6 33.1 0 7.9-1.6 10.4-6.6 10.8-6.6.5-7.8-1.7-8.3-15.4l-.3-11.4H1727v11.2c0 11.9 1.3 18.5 4.9 25.5 5.9 11.7 19.1 18.3 36.6 18.3 28.1 0 43.5-15 43.5-42.3 0-19.9-7.1-30.6-32.3-48.9-7.7-5.6-14.8-11.5-15.8-13.2-2.9-4.6-2.2-11.6 1.2-13.5 3.4-1.9 7.3-.8 8.8 2.5.6 1.4 1.4 5.3 1.8 8.5l.6 5.9h34.7v-6.3c0-18.2-9-31.6-24.5-36.3-7.3-2.2-22.7-2.7-29.8-.9z"/>
        <path d="M1516 1815v71h34v-142h-34v71z"/>
        <path d="M237.7 453.7c-.4.3-.7 23.7-.7 51.8 0 46.5.2 51.4 1.7 52.6 2.4 2.1 101.2 2.1 103.7 0 1.5-1.2 1.6-5.9 1.4-53l-.3-51.6-52.6-.3c-28.9-.1-52.9.1-53.2.5z"/>
        <path d="M2137.7 453.7c-.4.3-.7 23.7-.7 51.8 0 46.5.2 51.4 1.7 52.6 2.4 2.1 101.2 2.1 103.7 0 1.5-1.2 1.6-5.9 1.4-53l-.3-51.6-52.6-.3c-28.9-.1-52.9.1-53.2.5z"/>
        <path d="M237.7 645.7c-.4.3-.7 23.7-.7 51.8 0 46.5.2 51.4 1.7 52.6 2.4 2.1 101.2 2.1 103.7 0 1.5-1.2 1.6-5.9 1.4-53l-.3-51.6-52.6-.3c-28.9-.1-52.9.1-53.2.5z"/>
        <path d="M2137.7 645.7c-.4.3-.7 23.7-.7 51.8 0 46.5.2 51.4 1.7 52.6 2.4 2.1 101.2 2.1 103.7 0 1.5-1.2 1.6-5.9 1.4-53l-.3-51.6-52.6-.3c-28.9-.1-52.9.1-53.2.5z"/>
        <path d="M237.7 837.7c-.4.3-.7 23.7-.7 52 0 48 .1 51.4 1.8 52.1 2.2.9 101.2.9 103.5 0 1.6-.7 1.7-3.9 1.5-52.5l-.3-51.8-52.6-.3c-28.9-.1-52.9.1-53.2.5z"/>
        <path d="M2137.7 837.7c-.4.3-.7 23.7-.7 52 0 48 .1 51.4 1.8 52.1 2.2.9 101.2.9 103.5 0 1.6-.7 1.7-3.9 1.5-52.5l-.3-51.8-52.6-.3c-28.9-.1-52.9.1-53.2.5z"/>
        <path d="M238.2 1029.2c-.9.9-1.2 13.9-1.2 52.5 0 48 .1 51.4 1.8 52.1 2.2.9 101.2.9 103.5 0 1.6-.7 1.7-4.1 1.7-52.1 0-38.6-.3-51.6-1.2-52.5-1.7-1.7-102.9-1.7-104.6 0z"/>
        <path d="M2138.2 1029.2c-.9.9-1.2 13.9-1.2 52.5 0 48 .1 51.4 1.8 52.1 2.2.9 101.2.9 103.5 0 1.6-.7 1.7-4.1 1.7-52.1 0-38.6-.3-51.6-1.2-52.5-1.7-1.7-102.9-1.7-104.6 0z"/>
        <path d="M238.2 1221.2c-.9.9-1.2 13.9-1.2 52.5 0 48 .1 51.4 1.8 52.1 2.2.9 101.2.9 103.5 0 1.6-.7 1.7-4.1 1.7-52.1 0-38.6-.3-51.6-1.2-52.5-1.7-1.7-102.9-1.7-104.6 0z"/>
        <path d="M2138.2 1221.2c-.9.9-1.2 13.9-1.2 52.5 0 48 .1 51.4 1.8 52.1 2.2.9 101.2.9 103.5 0 1.6-.7 1.7-4.1 1.7-52.1 0-38.6-.3-51.6-1.2-52.5-1.7-1.7-102.9-1.7-104.6 0z"/>
        <path d="M237.6 1413.6c-.3.8-.6 24.5-.6 52.5 0 47.6.1 51 1.8 51.7 2.2.9 101.2.9 103.5 0 1.6-.7 1.7-3.9 1.5-53l-.3-52.3-52.6-.3c-47.4-.2-52.7-.1-53.3 1.4z"/>
        <path d="M2137.6 1413.6c-.3.9-.6 24.5-.6 52.5 0 47.6.1 51 1.8 51.7 2.2.9 101.2.9 103.5 0 1.6-.7 1.7-4.1 1.7-51.7 0-28-.3-51.6-.6-52.5-.5-1.4-6.1-1.6-52.9-1.6s-52.4.2-52.9 1.6z"/>
        <path d="M237.6 1605.6c-.9 2.4-.7 101.7.2 103.2.7 1 12 1.2 53.3 1l52.4-.3v-105l-52.6-.3c-47.4-.2-52.7-.1-53.3 1.4z"/>
        <path d="M2137.5 1605.2c-.3.7-.4 24.5-.3 52.8l.3 51.5h106v-105l-52.8-.3c-41.7-.2-52.9 0-53.2 1z"/>
        <path d="M237.7 1796.7c-.4.3-.7 23.6-.7 51.8 0 38.4.3 51.4 1.2 52.3 1.4 1.4 102.4 1.8 104.6.4 1-.7 1.2-11.9 1-52.8l-.3-51.9-52.6-.3c-28.9-.1-52.9.1-53.2.5z"/>
        <path d="M2137.7 1796.7c-.4.3-.7 23.6-.7 51.8 0 38.4.3 51.4 1.2 52.3 1.9 1.9 103.1 1.7 104.7-.2.8-.9 1-15.6.9-52.7l-.3-51.4-52.6-.3c-28.9-.1-52.9.1-53.2.5z"/>
        <path d="M533 2176.9c0 47.3.2 53 1.6 53.5 3 1.2 102.2.7 103-.5 1.1-1.9 1.7-47.2.9-77.2l-.7-28.7H533v52.9z"/>
        <path d="M724.5 2144.2c-.3 11.2-.5 34.8-.3 52.6.3 27.4.5 32.4 1.8 33.2 1.9 1.2 101 1.3 102.9.1 1.8-1.2 2.6-38.8 1.6-77.4l-.7-28.7H725.2l-.7 20.2z"/>
        <path d="M916.5 2152.7c-.8 30-.2 75.3.9 77.2.8 1.2 100 1.7 103 .5 1.4-.5 1.6-6.2 1.6-53.5V2124H917.2l-.7 28.7z"/>
        <path d="M1108.6 2125.6c-.3.8-.6 24.4-.6 52.3 0 38.1.3 51 1.2 51.9 1.4 1.4 101.4 1.8 103.6.4 1-.7 1.2-12 1-53.3l-.3-52.4-52.1-.3c-46.9-.2-52.2-.1-52.8 1.4z"/>
        <path d="M1300.7 2124.7c-.4.3-.7 23.9-.7 52.3 0 38.8.3 51.9 1.2 52.8 1.4 1.4 101.4 1.8 103.6.4 1-.7 1.2-12 1-53.3l-.3-52.4-52.1-.3c-28.6-.1-52.4.1-52.7.5z"/>
        <path d="M1492.7 2124.7c-.4.3-.7 23.9-.7 52.3 0 38.8.3 51.9 1.2 52.8 1.9 1.9 102.1 1.7 103.7-.2.8-.9 1-15.7.9-53.2l-.3-51.9-52.1-.3c-28.6-.1-52.4.1-52.7.5z"/>
        <path d="M1684.7 2124.7c-.4.3-.7 24.1-.7 52.9 0 46.7.2 52.3 1.6 52.8.9.3 24.2.6 51.9.6 41.2 0 50.5-.2 51.4-1.4.8-.9 1-15.7.9-53.2l-.3-51.9-52.1-.3c-28.6-.1-52.4.1-52.7.5z"/>
        <path d="M1876.7 2124.7c-.4.3-.7 24.1-.7 52.9 0 46.7.2 52.3 1.6 52.8.9.3 24.2.6 51.8.6 37.7 0 50.5-.3 51.4-1.2.9-.9 1.2-13.8 1.2-51.9 0-27.9-.3-51.4-.6-52.3-.5-1.4-6.1-1.6-52.3-1.6-28.5 0-52.1.3-52.4.7z"/>
    </g>
</svg>
